<?xml version="1.0" encoding="UTF-8" standalone="no"?>
<!DOCTYPE svg PUBLIC "-//W3C//DTD SVG 20010904//EN"
              "http://www.w3.org/TR/2001/REC-SVG-20010904/DTD/svg10.dtd">

<svg xmlns="http://www.w3.org/2000/svg"
     width="5.55556in" height="5.55556in"
     viewBox="0 0 400 400">
  <path id="Neimenovano"
        fill="yellow" stroke="black" stroke-width="5"
        d="M 200.00,336.00
           C 218.00,343.00 237.00,323.00 256.00,310.00
             283.00,309.00 272.00,307.00 302.00,312.00
             307.00,271.00 315.00,309.00 346.00,276.00
             329.00,274.00 279.00,242.00 279.00,205.00
             295.00,192.00 303.00,200.00 314.00,185.00
             311.00,158.00 286.00,189.00 277.00,176.00
             289.00,95.00 253.00,64.00 202.00,63.00
             145.00,62.00 110.00,97.00 122.00,174.00
             111.00,194.00 98.00,160.00 85.00,182.00
             84.00,200.00 105.00,189.00 119.00,206.00
             128.00,223.00 86.00,274.00 53.00,273.00
             64.00,302.00 100.00,277.00 95.00,311.00
             170.00,299.00 150.00,337.00 200.00,336.00 Z" />
</svg>
